<svg preserveAspectRatio="none" width="100%" height="100%" overflow="visible" style="display: block;" viewBox="0 0 24 24" fill="none" xmlns="http://www.w3.org/2000/svg">
<g id="boxicons:eye-slash">
<path id="Vector" d="M12 17C6.65 17 4.58 13.16 4.07 12C4.27 11.54 4.72 10.66 5.52 9.77L4.12 8.37C2.63 10.02 2.06 11.65 2.04 11.68C1.97 11.89 1.97 12.11 2.04 12.31C2.06 12.38 4.36 18.99 11.99 18.99C12.9 18.99 13.72 18.89 14.48 18.73L12.71 16.96C12.47 16.98 12.24 16.99 11.99 16.99L12 17ZM21.95 12.32C22.02 12.11 22.02 11.89 21.95 11.69C21.93 11.62 19.63 5.01 12 5.01C10.16 5.01 8.64 5.4 7.39 5.98L2.71 1.29L1.3 2.7L5.62 7.02L7.04 8.44L9.31 10.71L13.29 14.69L15.09 16.49L16.62 18.02L21.3 22.7L22.71 21.29L18.39 16.97C21 15.02 21.94 12.36 21.95 12.32ZM14.7 13.29C14.89 12.9 15 12.46 15 12C15 10.36 13.64 9 12 9C11.54 9 11.11 9.11 10.71 9.3L8.91 7.5C9.79 7.19 10.81 7 11.99 7C17.34 7 19.41 10.85 19.92 12C19.62 12.69 18.74 14.33 16.96 15.55L14.7 13.29Z" fill="var(--fill-0, #1E1E1E)"/>
</g>
</svg>
