<svg preserveAspectRatio="none" width="100%" height="100%" overflow="visible" style="display: block;" viewBox="0 0 25.3353 26.2389" fill="none" xmlns="http://www.w3.org/2000/svg">
<g id="Group">
<path id="Vector" opacity="0.987" fill-rule="evenodd" clip-rule="evenodd" d="M11.1736 0.113906C12.533 -0.0379688 13.3373 -0.0379688 14.798 0.113906C17.3835 0.496585 19.7803 1.69169 21.6417 3.52641C20.3838 4.71541 19.1425 5.92178 17.918 7.14516C15.573 5.15766 12.9555 4.69891 10.0655 5.76891C7.94547 6.74391 6.46922 8.32391 5.63672 10.5089C4.2763 9.49609 2.9336 8.45968 1.60922 7.40016C1.51718 7.35171 1.41206 7.33397 1.30922 7.34953C3.41297 3.29328 6.70047 0.880781 11.1717 0.112031" fill="var(--fill-0, #F44336)"/>
<path id="Vector_2" opacity="0.997" fill-rule="evenodd" clip-rule="evenodd" d="M1.30547 7.34953C1.41172 7.33328 1.51235 7.35016 1.60735 7.40016C2.93172 8.45968 4.27442 9.49609 5.63485 10.5089C5.42077 11.3603 5.28582 12.2296 5.23172 13.1058C5.27797 13.9533 5.41235 14.7852 5.63485 15.6014L1.40672 18.967C-0.434527 15.1195 -0.468277 11.247 1.30547 7.34953Z" fill="var(--fill-0, #FFC107)"/>
<path id="Vector_3" opacity="0.999" fill-rule="evenodd" clip-rule="evenodd" d="M21.4411 23.0433C20.1246 21.8822 18.7463 20.7932 17.3123 19.7808C18.7498 18.7658 19.6223 17.3733 19.9298 15.6033H12.8855V10.7114C16.948 10.6777 21.0086 10.712 25.0673 10.8145C25.8373 14.9958 24.948 18.7658 22.3992 22.1245C22.0962 22.4467 21.7751 22.7533 21.4411 23.0433Z" fill="var(--fill-0, #448AFF)"/>
<path id="Vector_4" opacity="0.993" fill-rule="evenodd" clip-rule="evenodd" d="M5.63485 15.6033C7.17235 19.4245 9.9911 21.2083 14.0911 20.9545C15.242 20.8213 16.3455 20.4192 17.3123 19.7808C18.7473 20.7958 20.1236 21.8833 21.4411 23.0433C19.3536 24.9191 16.6919 26.0322 13.8905 26.2008C13.254 26.2517 12.6145 26.2517 11.978 26.2008C7.20547 25.6383 3.68172 23.227 1.40672 18.967L5.63485 15.6033Z" fill="var(--fill-0, #43A047)"/>
</g>
</svg>
