<svg preserveAspectRatio="none" width="100%" height="100%" overflow="visible" style="display: block;" viewBox="0 0 19.5 21.5" fill="none" xmlns="http://www.w3.org/2000/svg">
<g id="Group">
<path id="Vector" d="M13.145 20.65C11.6713 20.718 10.1962 20.7514 8.721 20.75C7.24576 20.751 5.77069 20.7177 4.297 20.65C2.619 20.574 1.241 19.265 1.017 17.595C0.87 16.505 0.75 15.388 0.75 14.25C0.75 13.112 0.87 11.995 1.017 10.905C1.241 9.235 2.619 7.926 4.297 7.849C5.708 7.784 7.142 7.75 8.72 7.75C10.298 7.75 11.733 7.784 13.144 7.85C14.204 7.898 15.144 8.438 15.749 9.25" stroke="var(--stroke-0, #1E1E1E)" stroke-width="1.5" stroke-linecap="round"/>
<path id="Vector_2" d="M14.75 13.728C14.7532 13.2006 14.9656 12.696 15.3406 12.3251C15.7156 11.9542 16.2226 11.7473 16.75 11.75C17.855 11.75 18.75 12.636 18.75 13.728C18.75 14.122 18.634 14.488 18.433 14.797C17.835 15.716 16.75 16.592 16.75 17.684V18.179M16.75 20.75H16.762M4.25 7.75V5.25C4.25 4.05653 4.72411 2.91193 5.56802 2.06802C6.41193 1.22411 7.55653 0.75 8.75 0.75C9.94347 0.75 11.0881 1.22411 11.932 2.06802C12.7759 2.91193 13.25 4.05653 13.25 5.25V7.75" stroke="var(--stroke-0, #1E1E1E)" stroke-width="1.5" stroke-linecap="round" stroke-linejoin="round"/>
<path id="Vector_3" d="M9.75 14.24V14.25M5.75 14.24V14.25" stroke="var(--stroke-0, #1E1E1E)" stroke-width="2" stroke-linecap="round" stroke-linejoin="round"/>
</g>
</svg>
