<svg preserveAspectRatio="none" width="100%" height="100%" overflow="visible" style="display: block;" viewBox="0 0 30 30" fill="none" xmlns="http://www.w3.org/2000/svg">
<g id="octicon:person-24">
<path id="Vector" d="M15 3.125C16.4701 3.12455 17.9017 3.59536 19.0845 4.46834C20.2674 5.34131 21.1393 6.57047 21.5722 7.9754C22.0052 9.38033 21.9763 10.887 21.49 12.2744C21.0037 13.6617 20.0854 14.8567 18.87 15.6837C20.9796 16.4575 22.8093 17.8449 24.1236 19.6674C25.438 21.4899 26.1768 23.664 26.245 25.91C26.2514 26.0347 26.2328 26.1593 26.1903 26.2767C26.1479 26.3941 26.0824 26.5018 25.9978 26.5936C25.9131 26.6853 25.811 26.7593 25.6974 26.811C25.5838 26.8628 25.461 26.8913 25.3362 26.895C25.2115 26.8986 25.0872 26.8773 24.9708 26.8323C24.8543 26.7873 24.7481 26.7195 24.6582 26.6329C24.5683 26.5463 24.4966 26.4426 24.4473 26.3279C24.3981 26.2132 24.3722 26.0898 24.3712 25.965C24.2968 23.5293 23.2769 21.2183 21.5277 19.5218C19.7785 17.8252 17.4374 16.8764 15.0006 16.8764C12.5638 16.8764 10.2227 17.8252 8.47353 19.5218C6.72433 21.2183 5.70444 23.5293 5.63 25.965C5.62254 26.2136 5.51662 26.4491 5.33553 26.6197C5.15444 26.7902 4.91302 26.8818 4.66437 26.8744C4.41573 26.8669 4.18024 26.761 4.0097 26.5799C3.83916 26.3988 3.74754 26.1574 3.755 25.9087C3.82344 23.663 4.56237 21.4891 5.8767 19.6669C7.19103 17.8446 9.02062 16.4574 11.13 15.6837C9.91461 14.8567 8.99635 13.6617 8.51 12.2744C8.02365 10.887 7.99483 9.38033 8.42776 7.9754C8.86069 6.57047 9.73258 5.34131 10.9155 4.46834C12.0983 3.59536 13.5299 3.12455 15 3.125ZM10 10C10 11.3261 10.5268 12.5979 11.4645 13.5355C12.4021 14.4732 13.6739 15 15 15C16.3261 15 17.5979 14.4732 18.5355 13.5355C19.4732 12.5979 20 11.3261 20 10C20 8.67392 19.4732 7.40215 18.5355 6.46447C17.5979 5.52678 16.3261 5 15 5C13.6739 5 12.4021 5.52678 11.4645 6.46447C10.5268 7.40215 10 8.67392 10 10Z" fill="var(--fill-0, #1E1E1E)"/>
</g>
</svg>
