<svg preserveAspectRatio="none" width="100%" height="100%" overflow="visible" style="display: block;" viewBox="0 0 16 16" fill="none" xmlns="http://www.w3.org/2000/svg">
<g id="octicon:verified-16" clip-path="url(#clip0_0_96)">
<path id="Vector" d="M9.585 0.52L10.514 1.2C10.667 1.312 10.845 1.386 11.032 1.415L12.17 1.59C12.733 1.67686 13.2536 1.94083 13.6564 2.34361C14.0592 2.7464 14.3231 3.26704 14.41 3.83L14.584 4.969C14.613 5.156 14.687 5.334 14.799 5.487L15.479 6.415C15.8162 6.87469 15.9979 7.42992 15.9979 8C15.9979 8.57008 15.8162 9.12531 15.479 9.585L14.799 10.513C14.6874 10.6663 14.6137 10.8438 14.584 11.031L14.409 12.169C14.3223 12.7323 14.0582 13.2533 13.6553 13.6563C13.2523 14.0592 12.7313 14.3233 12.168 14.41L11.03 14.585C10.8428 14.6147 10.6653 14.6884 10.512 14.8L9.584 15.48C9.12431 15.8172 8.56908 15.9989 7.999 15.9989C7.42892 15.9989 6.87369 15.8172 6.414 15.48L5.486 14.8C5.33274 14.6884 5.15523 14.6147 4.968 14.585L3.83 14.41C3.26704 14.3231 2.7464 14.0592 2.34361 13.6564C1.94083 13.2536 1.67686 12.733 1.59 12.17L1.415 11.032C1.38526 10.8448 1.31158 10.6673 1.2 10.514L0.52 9.586C0.182845 9.12631 0.00105877 8.57108 0.00105877 8.001C0.00105877 7.43092 0.182845 6.87569 0.52 6.416L1.2 5.488C1.312 5.335 1.386 5.157 1.415 4.97L1.59 3.83C1.67686 3.26704 1.94083 2.7464 2.34361 2.34361C2.7464 1.94083 3.26704 1.67686 3.83 1.59L4.969 1.415C5.156 1.386 5.334 1.312 5.487 1.2L6.415 0.52C6.87469 0.182845 7.42992 0.00105877 8 0.00105877C8.57008 0.00105877 9.12531 0.182845 9.585 0.52ZM7.303 1.728L6.376 2.408C6.02744 2.66303 5.62278 2.83072 5.196 2.897L4.059 3.071C3.81089 3.10914 3.58141 3.22541 3.40391 3.40291C3.22641 3.58041 3.11014 3.80989 3.072 4.058L2.898 5.194C2.83172 5.62078 2.66403 6.02544 2.409 6.374L1.729 7.302C1.58096 7.50424 1.50115 7.74836 1.50115 7.999C1.50115 8.24964 1.58096 8.49376 1.729 8.696L2.409 9.623C2.665 9.971 2.833 10.376 2.898 10.803L3.072 11.94C3.15 12.449 3.55 12.849 4.059 12.927L5.195 13.101C5.62178 13.1673 6.02644 13.335 6.375 13.59L7.303 14.27C7.717 14.575 8.282 14.575 8.697 14.27L9.624 13.59C9.97256 13.335 10.3772 13.1673 10.804 13.101L11.941 12.927C12.1891 12.8889 12.4186 12.7726 12.5961 12.5951C12.7736 12.4176 12.8899 12.1881 12.928 11.94L13.102 10.804C13.1683 10.3772 13.336 9.97256 13.591 9.624L14.271 8.696C14.419 8.49376 14.4988 8.24964 14.4988 7.999C14.4988 7.74836 14.419 7.50424 14.271 7.302L13.591 6.375C13.336 6.02644 13.1683 5.62178 13.102 5.195L12.928 4.058C12.8899 3.80989 12.7736 3.58041 12.5961 3.40291C12.4186 3.22541 12.1891 3.10914 11.941 3.071L10.805 2.897C10.3782 2.83072 9.97356 2.66303 9.625 2.408L8.697 1.728C8.49476 1.57996 8.25064 1.50015 8 1.50015C7.74936 1.50015 7.50524 1.57996 7.303 1.728ZM11.28 6.78L7.53 10.53C7.38938 10.6705 7.19875 10.7493 7 10.7493C6.80125 10.7493 6.61063 10.6705 6.47 10.53L4.72 8.78C4.58736 8.63785 4.5151 8.44975 4.51846 8.25536C4.52181 8.06097 4.60053 7.87548 4.738 7.738C4.87548 7.60053 5.06097 7.52181 5.25536 7.51846C5.44975 7.5151 5.63785 7.58736 5.78 7.72L7 8.94L10.22 5.72C10.3621 5.58736 10.5502 5.5151 10.7446 5.51846C10.939 5.52181 11.1245 5.60053 11.262 5.738C11.3995 5.87548 11.4782 6.06097 11.4815 6.25536C11.4849 6.44975 11.4126 6.63785 11.28 6.78Z" fill="var(--fill-0, white)"/>
</g>
<defs>
<clipPath id="clip0_0_96">
<rect width="16" height="16" fill="white"/>
</clipPath>
</defs>
</svg>
